<svg id="apple-logo" xmlns="http://www.w3.org/2000/svg" width="17.653" height="21.653" viewBox="0 0 17.653 21.653">
  <g id="Group_11585" data-name="Group 11585" transform="translate(0)">
    <path id="Path_35285" data-name="Path 35285" d="M15.551,0h.154a4.637,4.637,0,0,1-1.168,3.494,3.62,3.62,0,0,1-3.186,1.5A4.5,4.5,0,0,1,12.54,1.6,5.134,5.134,0,0,1,15.551,0Z" transform="translate(-2.558)"/>
    <path id="Path_35286" data-name="Path 35286" d="M19.757,16.164v.043a12.6,12.6,0,0,1-1.8,3.475c-.687.946-1.53,2.219-3.034,2.219-1.3,0-2.163-.836-3.5-.859-1.409-.023-2.184.7-3.472.88H7.513a3.923,3.923,0,0,1-2.266-1.561A13.678,13.678,0,0,1,2.1,12.493v-.969A6.346,6.346,0,0,1,4.875,6.315a4.679,4.679,0,0,1,3.142-.727,7.9,7.9,0,0,1,1.539.441,4.251,4.251,0,0,0,1.538.461,3.693,3.693,0,0,0,1.079-.33,6.64,6.64,0,0,1,3.472-.616,4.818,4.818,0,0,1,3.54,2.111,4.543,4.543,0,0,0-2.308,4.507A4.653,4.653,0,0,0,19.757,16.164Z" transform="translate(-2.104 -0.27)"/>
  </g>
</svg>
