<svg xmlns="http://www.w3.org/2000/svg" width="32.804" height="32.804" viewBox="0 0 32.804 32.804">
  <g id="attach_file-24px" transform="translate(0 16.402) rotate(-45)">
    <path id="Path_13" data-name="Path 13" d="M9.182,4.832V15.947a3.866,3.866,0,0,1-7.732,0V3.866a2.416,2.416,0,0,1,4.832,0V14.014a.966.966,0,1,1-1.933,0V4.832H2.9v9.182a2.416,2.416,0,0,0,4.832,0V3.866A3.866,3.866,0,0,0,0,3.866V15.947a5.316,5.316,0,0,0,10.631,0V4.832Z" transform="translate(6.765 0.966)" fill="#886aad"/>
    <path id="Path_14" data-name="Path 14" d="M0,0H23.2V23.2H0Z" fill="none"/>
  </g>
</svg>
