<svg xmlns="http://www.w3.org/2000/svg" width="15.732" height="14.209" viewBox="0 0 15.732 14.209">
  <g id="Group_11606" data-name="Group 11606" transform="translate(0.25 0.25)">
    <ellipse id="Ellipse_3" data-name="Ellipse 3" cx="1.649" cy="1.649" rx="1.649" ry="1.649" transform="translate(5.967 5.967)" fill="none" stroke="#383233" stroke-width="0.5"/>
    <path id="Path_11" data-name="Path 11" d="M7.331,2,5.938,3.523H3.523A1.528,1.528,0,0,0,2,5.046v9.139a1.528,1.528,0,0,0,1.523,1.523H15.709a1.528,1.528,0,0,0,1.523-1.523V5.046a1.528,1.528,0,0,0-1.523-1.523H13.295L11.9,2ZM9.616,13.424a3.808,3.808,0,1,1,3.808-3.808A3.809,3.809,0,0,1,9.616,13.424Z" transform="translate(-2 -2)" fill="none" stroke="#383233" stroke-width="0.5"/>
  </g>
</svg>
