<svg xmlns="http://www.w3.org/2000/svg" width="17.449" height="13.316" viewBox="0 0 17.449 13.316">
  <g id="chat-bubbles-with-ellipsis" transform="translate(0 -3.553)">
    <g id="Group_11537" data-name="Group 11537" transform="translate(0 3.553)">
      <g id="Group_11535" data-name="Group 11535">
        <path id="Path_35217" data-name="Path 35217" d="M23.284,15.668a4.184,4.184,0,0,0-2.719-3.659,4.3,4.3,0,0,1,.161,1.052,4.627,4.627,0,0,1,.466.314,2.938,2.938,0,0,1,1.273,2.293,2.93,2.93,0,0,1-1.273,2.292,5.585,5.585,0,0,1-3.406,1.077,5.983,5.983,0,0,1-2.436-.5,9.2,9.2,0,0,1-1.4.165,6.416,6.416,0,0,0,3.84,1.205,6.779,6.779,0,0,0,2.645-.522l2,1.021-.4-2.042A3.694,3.694,0,0,0,23.284,15.668Z" transform="translate(-5.834 -7.091)" fill="#886aad"/>
        <path id="Path_35218" data-name="Path 35218" d="M14.322,8.953A4.38,4.38,0,0,0,14.162,7.9c-.7-2.486-3.567-4.348-7-4.348C3.207,3.554,0,6.027,0,9.077a4.811,4.811,0,0,0,1.636,3.514L1.109,15.25l2.607-1.33a8.839,8.839,0,0,0,3.446.682c.127,0,.254,0,.38-.008a9.1,9.1,0,0,0,1.4-.166c3.092-.611,5.378-2.775,5.378-5.351C14.324,9.036,14.323,8.995,14.322,8.953ZM11.6,12.065a7.18,7.18,0,0,1-4.067,1.394q-.184.01-.372.009-.359,0-.711-.031a7.061,7.061,0,0,1-3.727-1.371A3.827,3.827,0,0,1,1.067,9.079,3.827,3.827,0,0,1,2.724,6.091a7.276,7.276,0,0,1,4.438-1.4,7.272,7.272,0,0,1,4.438,1.4,4.609,4.609,0,0,1,1.223,1.377,3.429,3.429,0,0,1,.372.99,3.121,3.121,0,0,1,.062.619A3.826,3.826,0,0,1,11.6,12.065Z" transform="translate(0 -3.553)" fill="#886aad"/>
      </g>
      <g id="Group_11536" data-name="Group 11536" transform="translate(3.838 4.757)">
        <circle id="Ellipse_2951" data-name="Ellipse 2951" cx="0.783" cy="0.783" r="0.783" transform="translate(5.082 0.001)" fill="#886aad"/>
        <circle id="Ellipse_2952" data-name="Ellipse 2952" cx="0.783" cy="0.783" r="0.783" transform="translate(2.541 0.001)" fill="#886aad"/>
        <circle id="Ellipse_2953" data-name="Ellipse 2953" cx="0.784" cy="0.784" r="0.784" fill="#886aad"/>
      </g>
    </g>
  </g>
</svg>
