<svg xmlns="http://www.w3.org/2000/svg" width="20.827" height="15.894" viewBox="0 0 20.827 15.894">
  <g id="chat-bubbles-with-ellipsis" transform="translate(0 -3.553)">
    <g id="Group_11537" data-name="Group 11537" transform="translate(0 3.553)">
      <g id="Group_11535" data-name="Group 11535">
        <path id="Path_35217" data-name="Path 35217" d="M25.091,16.376a4.994,4.994,0,0,0-3.245-4.367,5.132,5.132,0,0,1,.192,1.256,5.523,5.523,0,0,1,.556.375,3.507,3.507,0,0,1,1.519,2.737,3.5,3.5,0,0,1-1.519,2.735A6.666,6.666,0,0,1,18.529,20.4a7.142,7.142,0,0,1-2.907-.6,10.986,10.986,0,0,1-1.676.2,7.658,7.658,0,0,0,4.583,1.438,8.092,8.092,0,0,0,3.157-.623l2.389,1.219-.482-2.437A4.409,4.409,0,0,0,25.091,16.376Z" transform="translate(-4.264 -6.139)" fill="#fff"/>
        <path id="Path_35218" data-name="Path 35218" d="M17.095,10A5.228,5.228,0,0,0,16.9,8.743c-.834-2.967-4.258-5.19-8.354-5.19C3.827,3.554,0,6.506,0,10.147a5.742,5.742,0,0,0,1.952,4.194l-.629,3.174,3.112-1.588a10.55,10.55,0,0,0,4.113.814c.152,0,.3,0,.453-.01a10.863,10.863,0,0,0,1.677-.2c3.691-.73,6.419-3.312,6.419-6.386C17.1,10.1,17.1,10.048,17.095,10Zm-3.248,3.714a8.569,8.569,0,0,1-4.855,1.663q-.22.011-.444.011-.429,0-.848-.037a8.427,8.427,0,0,1-4.449-1.636,4.568,4.568,0,0,1-1.978-3.566A4.568,4.568,0,0,1,3.251,6.583a8.684,8.684,0,0,1,5.3-1.673,8.68,8.68,0,0,1,5.3,1.673,5.5,5.5,0,0,1,1.46,1.644,4.092,4.092,0,0,1,.444,1.182,3.725,3.725,0,0,1,.074.739A4.567,4.567,0,0,1,13.846,13.712Z" transform="translate(0 -3.553)" fill="#fff"/>
      </g>
      <g id="Group_11536" data-name="Group 11536" transform="translate(4.581 5.678)">
        <circle id="Ellipse_2951" data-name="Ellipse 2951" cx="0.935" cy="0.935" r="0.935" transform="translate(6.066 0.001)" fill="#fff"/>
        <circle id="Ellipse_2952" data-name="Ellipse 2952" cx="0.935" cy="0.935" r="0.935" transform="translate(3.033 0.001)" fill="#fff"/>
        <circle id="Ellipse_2953" data-name="Ellipse 2953" cx="0.936" cy="0.936" r="0.936" fill="#fff"/>
      </g>
    </g>
  </g>
</svg>
