<svg xmlns="http://www.w3.org/2000/svg" width="10.774" height="9.121" viewBox="0 0 10.774 9.121">
  <g id="diamond" transform="translate(0 -39.279)">
    <g id="Group_11587" data-name="Group 11587" transform="translate(5.922 41.675)">
      <g id="Group_11586" data-name="Group 11586">
        <path id="Path_35287" data-name="Path 35287" d="M283.41,153.145,281.4,159.5l4.853-6.359Z" transform="translate(-281.402 -153.145)" fill="#dec2f5"/>
      </g>
    </g>
    <g id="Group_11589" data-name="Group 11589" transform="translate(0.023 39.426)">
      <g id="Group_11588" data-name="Group 11588" transform="translate(0 0)">
        <path id="Path_35288" data-name="Path 35288" d="M2.624,46.263l-1.542,1.85H3.7Z" transform="translate(-1.082 -46.263)" fill="#dec2f5"/>
      </g>
    </g>
    <g id="Group_11591" data-name="Group 11591" transform="translate(8.131 39.426)">
      <g id="Group_11590" data-name="Group 11590" transform="translate(0 0)">
        <path id="Path_35289" data-name="Path 35289" d="M387.465,46.263l-1.079,1.85h2.621Z" transform="translate(-386.386 -46.263)" fill="#dec2f5"/>
      </g>
    </g>
    <g id="Group_11593" data-name="Group 11593" transform="translate(0 41.675)">
      <g id="Group_11592" data-name="Group 11592">
        <path id="Path_35290" data-name="Path 35290" d="M2.845,153.145H0L4.853,159.5Z" transform="translate(0 -153.145)" fill="#dec2f5"/>
      </g>
    </g>
    <g id="Group_11595" data-name="Group 11595" transform="translate(5.869 39.279)">
      <g id="Group_11594" data-name="Group 11594" transform="translate(0 0)">
        <path id="Path_35291" data-name="Path 35291" d="M278.906,39.279l1.872,1.872,1.092-1.872Z" transform="translate(-278.906 -39.279)" fill="#dec2f5"/>
      </g>
    </g>
    <g id="Group_11597" data-name="Group 11597" transform="translate(1.941 39.279)">
      <g id="Group_11596" data-name="Group 11596" transform="translate(0 0)">
        <path id="Path_35292" data-name="Path 35292" d="M92.232,39.279l1.092,1.872L95.2,39.279Z" transform="translate(-92.232 -39.279)" fill="#dec2f5"/>
      </g>
    </g>
    <g id="Group_11599" data-name="Group 11599" transform="translate(3.263 41.675)">
      <g id="Group_11598" data-name="Group 11598">
        <path id="Path_35293" data-name="Path 35293" d="M155.076,153.145l2.124,6.725,2.124-6.725Z" transform="translate(-155.076 -153.145)" fill="#dec2f5"/>
      </g>
    </g>
    <g id="Group_11601" data-name="Group 11601" transform="translate(3.473 39.362)">
      <g id="Group_11600" data-name="Group 11600" transform="translate(0 0)">
        <path id="Path_35294" data-name="Path 35294" d="M166.954,43.208l-1.914,1.914h3.828Z" transform="translate(-165.04 -43.208)" fill="#dec2f5"/>
      </g>
    </g>
  </g>
</svg>
