<svg xmlns="http://www.w3.org/2000/svg" width="16.137" height="16.139" viewBox="0 0 16.137 16.139">
  <g id="edit" transform="translate(-5.952 -0.261)">
    <path id="Path_26960" data-name="Path 26960" d="M122.958.986a2.476,2.476,0,0,0-3.5,0L109.642,10.8a.55.55,0,0,0-.141.242L108.21,15.7a.55.55,0,0,0,.677.677l4.66-1.291a.55.55,0,0,0,.242-.141L123.6,5.132a2.478,2.478,0,0,0,0-3.5ZM110.841,11.158l8.033-8.033,2.591,2.591-8.033,8.033Zm-.517,1.038,2.07,2.07-2.863.793Zm12.5-7.842-.583.583-2.591-2.591.584-.583a1.375,1.375,0,0,1,1.945,0l.646.646A1.377,1.377,0,0,1,122.826,4.355Zm0,0" transform="translate(-102.238)" fill="#fff7fb"/>
  </g>
</svg>
