<svg xmlns="http://www.w3.org/2000/svg" width="15.732" height="15.732" viewBox="0 0 15.732 15.732">
  <g id="Group_3" data-name="Group 3" transform="translate(0.25 0.25)">
    <path id="Path_15" data-name="Path 15" d="M9.609,2a7.616,7.616,0,1,0,7.624,7.616A7.612,7.612,0,0,0,9.609,2ZM6.95,6.57A1.142,1.142,0,1,1,5.808,7.712,1.141,1.141,0,0,1,6.95,6.57Zm2.666,7.616a4.157,4.157,0,0,1-3.808-3.046h7.616A4.157,4.157,0,0,1,9.616,14.186Zm2.666-5.331a1.142,1.142,0,1,1,1.142-1.142A1.141,1.141,0,0,1,12.282,8.854Z" transform="translate(-2 -2)" fill="none" stroke="#383233" stroke-width="0.5"/>
  </g>
</svg>
