<svg id="Group_11969" data-name="Group 11969" xmlns="http://www.w3.org/2000/svg" width="117.864" height="13.101" viewBox="0 0 117.864 13.101">
  <path id="Path_35250" data-name="Path 35250" d="M5.512,50.9V61.2a.882.882,0,0,1-.27.65.92.92,0,0,1-1.312,0,.882.882,0,0,1-.27-.65V50.9H.927a.882.882,0,0,1-.65-.27.92.92,0,0,1,0-1.312.882.882,0,0,1,.65-.27H8.163a.887.887,0,0,1,.656.27.92.92,0,0,1,0,1.312.887.887,0,0,1-.656.27Z" transform="translate(-0.002 -49.05)" fill="#fff"/>
  <path id="Path_35251" data-name="Path 35251" d="M39.091,58.348a2.569,2.569,0,0,0-1.1-.226,2.7,2.7,0,1,0,1.9,4.608h0a.876.876,0,0,1,.645-.265.893.893,0,0,1,.656.27.865.865,0,0,1,.281.634.882.882,0,0,1-.27.65h0a4.542,4.542,0,1,1-3.2-7.76,4.343,4.343,0,0,1,3.2,1.323h0a.909.909,0,0,1,0,1.284l-2.6,2.579a.9.9,0,0,1-.65.265.931.931,0,0,1-.667-1.582Z" transform="translate(-15.017 -52.285)" fill="#fff"/>
  <path id="Path_35252" data-name="Path 35252" d="M76.162,58.362a2.568,2.568,0,0,0-1.1-.226,2.7,2.7,0,1,0,0,5.39,2.585,2.585,0,0,0,1.9-.783h0a.876.876,0,0,1,.645-.265.893.893,0,0,1,.656.27.865.865,0,0,1,.27.65.882.882,0,0,1-.27.65h0a4.542,4.542,0,1,1-3.2-7.76,4.343,4.343,0,0,1,3.2,1.323h0a.909.909,0,0,1,0,1.284l-2.6,2.579a.909.909,0,0,1-.656.265.926.926,0,0,1-.667-.265.965.965,0,0,1,0-1.317Z" transform="translate(-31.652 -52.299)" fill="#fff"/>
  <path id="Path_35253" data-name="Path 35253" d="M117.065,65.364a.9.9,0,0,1-.656-.276,1.053,1.053,0,0,1-.27-.777V60.8a.833.833,0,0,1,0-.165,2.552,2.552,0,0,0-.783-1.72,2.618,2.618,0,0,0-1.913-.788h-.033a2.618,2.618,0,0,0-1.913.788,2.552,2.552,0,0,0-.783,1.72v3.676a1.053,1.053,0,0,1-.276.777.876.876,0,0,1-.65.276.9.9,0,0,1-.656-.276,1.1,1.1,0,0,1-.276-.8V60.778a4.409,4.409,0,0,1,1.328-3.164,4.69,4.69,0,0,1,3.158-1.345h.143a4.69,4.69,0,0,1,3.164,1.345,6.138,6.138,0,0,1,.408.463,6.139,6.139,0,0,1,.408-.463,4.679,4.679,0,0,1,3.158-1.345h.143a4.668,4.668,0,0,1,3.153,1.345,4.365,4.365,0,0,1,1.328,3.164v3.511a1.1,1.1,0,0,1-.27.8.92.92,0,0,1-1.312,0,1.053,1.053,0,0,1-.27-.777V60.635a2.524,2.524,0,0,0-.783-1.72,2.607,2.607,0,0,0-1.907-.788h-.039a2.612,2.612,0,0,0-1.907.788,2.552,2.552,0,0,0-.783,1.72q0,.083,0,.165v3.511a1.053,1.053,0,0,1-.276.777.887.887,0,0,1-.65.276Z" transform="translate(-48.86 -52.29)" fill="#fff"/>
  <path id="Path_35254" data-name="Path 35254" d="M167.852,58.385a2.7,2.7,0,1,0,.8,4.409h0a.931.931,0,0,1,1.576.656.887.887,0,0,1-.276.65h0a4.542,4.542,0,1,1,0-6.438h0a.909.909,0,0,1,0,1.284l-2.6,2.579a.931.931,0,1,1-1.317-1.317Z" transform="translate(-72.806 -52.322)" fill="#fff"/>
  <path id="Path_35255" data-name="Path 35255" d="M204.937,58.362a2.579,2.579,0,0,0-1.1-.226,2.7,2.7,0,1,0,1.913,4.608h0a.86.86,0,0,1,.645-.265.882.882,0,0,1,.65.27.871.871,0,0,1,.276.65.887.887,0,0,1-.276.65h0a4.542,4.542,0,1,1-3.2-7.76,4.349,4.349,0,0,1,3.2,1.323h0a.909.909,0,0,1,0,1.284l-2.6,2.579a.9.9,0,0,1-.65.265.931.931,0,0,1-.667-1.582Z" transform="translate(-89.454 -52.299)" fill="#fff"/>
</svg>
