<svg xmlns="http://www.w3.org/2000/svg" width="27.433" height="17.419" viewBox="0 0 27.433 17.419">
  <g id="group" transform="translate(0 -92.25)">
    <g id="Group_11905" data-name="Group 11905" transform="translate(0 92.25)">
      <path id="Path_35365" data-name="Path 35365" d="M23.726,99.914a3.132,3.132,0,1,0-3.593,0A5.427,5.427,0,0,0,18.282,101a7.022,7.022,0,0,0-2.54-1.384,3.968,3.968,0,1,0-4.1,0,7.081,7.081,0,0,0-2.513,1.368A5.471,5.471,0,0,0,7.3,99.92a3.132,3.132,0,1,0-3.593,0A5.5,5.5,0,0,0,0,105.114v.358a.023.023,0,0,0,.022.022H6.66a7.3,7.3,0,0,0-.06.917v.369a2.886,2.886,0,0,0,2.888,2.888H17.9a2.886,2.886,0,0,0,2.888-2.888v-.369a7.3,7.3,0,0,0-.06-.917h6.682a.023.023,0,0,0,.022-.022v-.358A5.519,5.519,0,0,0,23.726,99.914Zm-4.06-2.567a2.263,2.263,0,1,1,2.307,2.263h-.087A2.26,2.26,0,0,1,19.666,97.347Zm-9.087-1.129a3.1,3.1,0,1,1,3.279,3.094H13.5A3.1,3.1,0,0,1,10.579,96.218Zm-7.36,1.129A2.263,2.263,0,1,1,5.526,99.61H5.439A2.264,2.264,0,0,1,3.219,97.347Zm3.593,7.274H.879a4.638,4.638,0,0,1,4.57-4.142h.065a4.59,4.59,0,0,1,2.958,1.1A7.127,7.127,0,0,0,6.812,104.621Zm13.1,2.16a2.022,2.022,0,0,1-2.019,2.019H9.477a2.022,2.022,0,0,1-2.019-2.019v-.369a6.235,6.235,0,0,1,6.041-6.226c.06.005.125.005.185.005s.125,0,.185-.005a6.235,6.235,0,0,1,6.041,6.226Zm.646-2.16a7.108,7.108,0,0,0-1.645-3.018,4.612,4.612,0,0,1,2.985-1.124h.065a4.638,4.638,0,0,1,4.57,4.142Z" transform="translate(0 -92.25)" fill="#fff"/>
    </g>
  </g>
</svg>
