<svg xmlns="http://www.w3.org/2000/svg" width="18.788" height="15.649" viewBox="0 0 18.788 15.649">
  <g id="iconfinder_icons_home_1564508" transform="translate(0.026 -2.025)">
    <path id="home" d="M18.483,8.508,10.336,2.319a1.778,1.778,0,0,0-1.959,0L.308,8.508A.726.726,0,0,0,.778,9.84h.783v4.779a3.128,3.128,0,0,0,3.134,3.055H6.262a.74.74,0,0,0,.783-.783V13.052a1.641,1.641,0,0,1,1.567-1.645h1.567a1.641,1.641,0,0,1,1.567,1.645V16.89a.785.785,0,0,0,.783.783H14.1a3.128,3.128,0,0,0,3.134-3.055V9.84h.783A.748.748,0,0,0,18.483,8.508Z" transform="translate(0)" fill="#fff"/>
  </g>
</svg>
