<svg xmlns="http://www.w3.org/2000/svg" width="13.593" height="12" viewBox="0 0 13.593 12">
  <g id="like_1_" data-name="like (1)" transform="translate(0 -30)">
    <g id="Group_11572" data-name="Group 11572" transform="translate(0 30)">
      <path id="Path_35279" data-name="Path 35279" d="M9.982,30a3.218,3.218,0,0,0-2.01.695A4.578,4.578,0,0,0,6.8,32.109a4.578,4.578,0,0,0-1.176-1.414A3.218,3.218,0,0,0,3.611,30,3.69,3.69,0,0,0,0,33.916c0,2.412,1.937,4.062,4.868,6.561.5.424,1.062.905,1.649,1.418a.425.425,0,0,0,.559,0c.587-.513,1.151-.994,1.649-1.418,2.931-2.5,4.868-4.148,4.868-6.56A3.69,3.69,0,0,0,9.982,30Z" transform="translate(0 -30)" fill="#886aad"/>
    </g>
  </g>
</svg>
