<svg xmlns="http://www.w3.org/2000/svg" width="22.522" height="20" viewBox="0 0 22.522 20">
  <g id="like_1_" data-name="like (1)" transform="translate(0.5 -29.5)">
    <g id="Group_11572" data-name="Group 11572" transform="translate(0 30)">
      <path id="Path_35279" data-name="Path 35279" d="M15.805,30a5.1,5.1,0,0,0-3.182,1.1,7.249,7.249,0,0,0-1.862,2.239A7.249,7.249,0,0,0,8.9,31.1,5.1,5.1,0,0,0,5.717,30C2.458,30,0,32.666,0,36.2c0,3.819,3.066,6.432,7.708,10.388.788.672,1.682,1.433,2.61,2.245a.673.673,0,0,0,.885,0c.929-.812,1.822-1.574,2.611-2.246,4.641-3.955,7.707-6.568,7.707-10.387C21.522,32.666,19.064,30,15.805,30Z" transform="translate(0 -30)" fill="none" stroke="#886aad" stroke-width="1"/>
    </g>
  </g>
</svg>
