<svg xmlns="http://www.w3.org/2000/svg" width="13.769" height="12" viewBox="0 0 13.769 12">
  <g id="message" transform="translate(0 -0.5)">
    <path id="Path_35282" data-name="Path 35282" d="M10.945.5H2.824A2.913,2.913,0,0,0,0,3.488V8.1a2.923,2.923,0,0,0,2,2.827l1.364,1.444a.388.388,0,0,0,.571,0l1.251-1.324h5.762a2.913,2.913,0,0,0,2.824-2.989V3.488A2.913,2.913,0,0,0,10.945.5Zm2.017,7.562A2.081,2.081,0,0,1,10.945,10.2H5.016a.392.392,0,0,0-.285.125L3.647,11.469,2.492,10.247a.4.4,0,0,0-.188-.112A2.069,2.069,0,0,1,.807,8.1V3.488A2.081,2.081,0,0,1,2.824,1.354h8.121a2.081,2.081,0,0,1,2.017,2.135Zm0,0" transform="translate(0 0)" fill="#886aad"/>
    <path id="Path_35283" data-name="Path 35283" d="M151.607,144.328h-5.422a.427.427,0,0,0,0,.854h5.422a.427.427,0,0,0,0-.854Zm0,0" transform="translate(-142.012 -139.734)" fill="#886aad"/>
    <path id="Path_35284" data-name="Path 35284" d="M151.607,197.352h-5.422a.427.427,0,0,0,0,.854h5.422a.427.427,0,0,0,0-.854Zm0,0" transform="translate(-142.012 -191.249)" fill="#886aad"/>
  </g>
</svg>
