<svg xmlns="http://www.w3.org/2000/svg" width="6.002" height="11.501" viewBox="0 0 6.002 11.501">
  <g id="pin_2_" data-name="pin (2)" transform="translate(-14.999 0.001)">
    <line id="Line_1871" data-name="Line 1871" y2="5" transform="translate(18 6)" fill="none" stroke="#886aad" stroke-linecap="round" stroke-miterlimit="10" stroke-width="1"/>
    <path id="Subtraction_48" data-name="Subtraction 48" d="M10426-2060a3,3,0,0,1-3-3,3.005,3.005,0,0,1,3-3,3,3,0,0,1,3,3A3,3,0,0,1,10426-2060Zm-1.5-4a.5.5,0,0,0-.5.5.5.5,0,0,0,.5.5.5.5,0,0,0,.5-.5A.5.5,0,0,0,10424.5-2064Z" transform="translate(-10408 2066)" fill="#886aad"/>
  </g>
</svg>
