<svg xmlns="http://www.w3.org/2000/svg" width="17.501" height="17.5" viewBox="0 0 17.501 17.5">
  <g id="Group_11157" data-name="Group 11157" transform="translate(-275.549 -762.5)">
    <g id="profile-user" transform="translate(276.049 763)">
      <path id="Path_23422" data-name="Path 23422" d="M8.25,0a8.25,8.25,0,1,0,8.25,8.25A8.25,8.25,0,0,0,8.25,0Zm0,2.467A2.729,2.729,0,1,1,5.522,5.2,2.729,2.729,0,0,1,8.25,2.468Zm0,11.876A6.055,6.055,0,0,1,4.306,12.89a1.163,1.163,0,0,1-.408-.884A2.752,2.752,0,0,1,6.663,9.255H9.838A2.748,2.748,0,0,1,12.6,12.006a1.16,1.16,0,0,1-.408.884A6.053,6.053,0,0,1,8.249,14.344Z" transform="translate(0 -0.001)" fill="none" stroke="#886aad" stroke-width="1"/>
    </g>
  </g>
</svg>
