<svg xmlns="http://www.w3.org/2000/svg" width="23" height="23.001" viewBox="0 0 23 23.001">
  <g id="gear" transform="translate(0.5 0.5)">
    <path id="Path_35364" data-name="Path 35364" d="M21.455,8.954l-1.963-.236a8.766,8.766,0,0,0-.873-2.113l1.221-1.551a.637.637,0,0,0-.05-.822L17.766,2.208a.639.639,0,0,0-.822-.05L15.39,3.38a8.646,8.646,0,0,0-2.108-.871L13.046.546A.638.638,0,0,0,12.43,0H9.568a.636.636,0,0,0-.615.546L8.717,2.509a8.716,8.716,0,0,0-2.11.872L5.054,2.16a.637.637,0,0,0-.821.049L2.209,4.235a.638.638,0,0,0-.048.822l1.22,1.552a8.694,8.694,0,0,0-.872,2.112L.546,8.956A.637.637,0,0,0,0,9.572v2.862a.637.637,0,0,0,.546.615l1.963.236a8.747,8.747,0,0,0,.872,2.108l-1.22,1.554a.639.639,0,0,0,.05.822l2.02,2.025a.639.639,0,0,0,.821.05l1.554-1.223a8.661,8.661,0,0,0,2.11.872l.236,1.962A.636.636,0,0,0,9.569,22h2.862a.634.634,0,0,0,.615-.546l.236-1.962a8.737,8.737,0,0,0,2.11-.872l1.554,1.221a.637.637,0,0,0,.821-.049l2.023-2.025a.637.637,0,0,0,.049-.823l-1.221-1.552a8.706,8.706,0,0,0,.873-2.109l1.962-.236A.635.635,0,0,0,22,12.432V9.57A.634.634,0,0,0,21.455,8.954ZM11,16.5A5.5,5.5,0,1,1,16.5,11,5.5,5.5,0,0,1,11,16.5Z" fill="none" stroke="#fff" stroke-width="1"/>
  </g>
</svg>
