<svg xmlns="http://www.w3.org/2000/svg" width="11.25" height="12" viewBox="0 0 11.25 12">
  <g id="share_1_" data-name="share (1)" transform="translate(-16)">
    <g id="Group_11574" data-name="Group 11574" transform="translate(16)">
      <path id="Path_35281" data-name="Path 35281" d="M25.141,7.781a2.108,2.108,0,0,0-1.7.857L20.133,6.946a2.109,2.109,0,0,0-.069-1.386l3.47-2.085a2.1,2.1,0,1,0-.361-.6L19.7,4.962a2.109,2.109,0,1,0,.129,2.616l3.3,1.687a2.109,2.109,0,1,0,2.015-1.484Zm0-7.078a1.406,1.406,0,1,1-1.406,1.406A1.408,1.408,0,0,1,25.141.7ZM18.109,7.758a1.406,1.406,0,1,1,1.406-1.406A1.408,1.408,0,0,1,18.109,7.758ZM25.141,11.3a1.406,1.406,0,1,1,1.406-1.406A1.408,1.408,0,0,1,25.141,11.3Z" transform="translate(-16)" fill="#886aad"/>
    </g>
  </g>
</svg>
