<svg id="smile_2_" data-name="smile (2)" xmlns="http://www.w3.org/2000/svg" width="18.892" height="18.892" viewBox="0 0 18.892 18.892">
  <g id="Group_11890" data-name="Group 11890">
    <g id="Group_11889" data-name="Group 11889">
      <path id="Path_35352" data-name="Path 35352" d="M112.077,224.1a.411.411,0,0,0-.58.032,4.569,4.569,0,0,1-6.78,0,.411.411,0,0,0-.612.548,5.39,5.39,0,0,0,8,0A.411.411,0,0,0,112.077,224.1Z" transform="translate(-98.661 -212.5)" fill="#886aad"/>
      <path id="Path_35353" data-name="Path 35353" d="M9.446,0a9.446,9.446,0,1,0,9.446,9.446A9.457,9.457,0,0,0,9.446,0Zm0,18.07A8.624,8.624,0,1,1,18.07,9.446,8.634,8.634,0,0,1,9.446,18.07Z" fill="#886aad"/>
      <path id="Path_35354" data-name="Path 35354" d="M210.053,128A2.056,2.056,0,0,0,208,130.053a.411.411,0,0,0,.821,0,1.232,1.232,0,1,1,2.464,0,.411.411,0,0,0,.821,0A2.056,2.056,0,0,0,210.053,128Z" transform="translate(-197.322 -121.429)" fill="#886aad"/>
      <path id="Path_35355" data-name="Path 35355" d="M83.285,130.053a.411.411,0,0,0,.821,0,2.053,2.053,0,1,0-4.107,0,.411.411,0,0,0,.821,0,1.232,1.232,0,1,1,2.464,0Z" transform="translate(-75.893 -121.429)" fill="#886aad"/>
    </g>
  </g>
</svg>
