<svg xmlns="http://www.w3.org/2000/svg" width="114.397" height="42.067" viewBox="0 0 114.397 42.067">
  <g id="Group_11559" data-name="Group 11559" transform="translate(7499.442 -1042)">
    <path id="Path_35256" data-name="Path 35256" d="M132.89,6.893c-.422.406-.812.828-1.2,1.265A21.346,21.346,0,1,0,102.6,39.389v2.249A23.095,23.095,0,1,1,132.89,6.956Z" transform="translate(-7557.239 1042.008)" fill="#fff"/>
    <path id="Path_35257" data-name="Path 35257" d="M160.431,23.244a23.079,23.079,0,0,1-9.572,18.738V39.8A21.346,21.346,0,1,0,122.3,8.1c-.422.406-.812.843-1.187,1.28a21.268,21.268,0,0,0-.2,27.483c.375.453.765.89,1.187,1.312a18.835,18.835,0,0,0,1.405,1.312v2.249a24.346,24.346,0,0,1-2.608-2.28c-.406-.422-.812-.843-1.187-1.3a23.064,23.064,0,0,1,.219-30.075c.39-.437.781-.859,1.2-1.265a23.079,23.079,0,0,1,39.3,16.427Z" transform="translate(-7545.476 1042.085)" fill="#fff"/>
    <path id="Path_35258" data-name="Path 35258" d="M70.56,0V1.749H87.737a23.079,23.079,0,0,0-5.012,39.834V39.35a21.33,21.33,0,0,1,13.585-37.6h13.445V0Z" transform="translate(-7570.002 1042)" fill="#fff"/>
  </g>
</svg>
