<svg xmlns="http://www.w3.org/2000/svg" width="33.858" height="13.057" viewBox="0 0 33.858 13.057">
  <g id="Group_11562" data-name="Group 11562" transform="translate(-146.784 -264.169)">
    <path id="Path_35256" data-name="Path 35256" d="M104.838,2.021c-.123.118-.237.241-.351.369A6.225,6.225,0,1,0,96,11.5v.656a6.735,6.735,0,1,1,8.834-10.113Z" transform="translate(64.094 264.462)" fill="#886aad" stroke="#886aad" stroke-width="0.5"/>
    <path id="Path_35257" data-name="Path 35257" d="M127.708,6.885a6.73,6.73,0,0,1-2.791,5.464v-.637a6.225,6.225,0,1,0-8.328-9.244c-.123.118-.237.246-.346.373a6.2,6.2,0,0,0-.059,8.014c.109.132.223.26.346.382a5.491,5.491,0,0,0,.41.382v.656a7.1,7.1,0,0,1-.76-.665c-.118-.123-.237-.246-.346-.378a6.725,6.725,0,0,1,.064-8.77c.114-.127.228-.25.351-.369a6.73,6.73,0,0,1,11.461,4.79Z" transform="translate(52.684 264.388)" fill="#886aad" stroke="#886aad" stroke-width="0.5"/>
    <path id="Path_35258" data-name="Path 35258" d="M70.56,0V.51h5.009a6.73,6.73,0,0,0-1.462,11.616v-.651A6.22,6.22,0,0,1,78.069.51h3.921V0Z" transform="translate(76.474 264.47)" fill="#886aad" stroke="#886aad" stroke-width="0.5"/>
  </g>
</svg>
