<svg xmlns="http://www.w3.org/2000/svg" width="82.374" height="30.292" viewBox="0 0 82.374 30.292">
  <g id="Group_11562" data-name="Group 11562" transform="translate(-147.034 -264.47)">
    <path id="Path_35256" data-name="Path 35256" d="M121.805,4.968c-.3.292-.585.6-.866.911A15.371,15.371,0,1,0,99.992,28.367v1.619A16.63,16.63,0,1,1,121.805,5.013Z" transform="translate(79.302 264.472)" fill="#607953"/>
    <path id="Path_35257" data-name="Path 35257" d="M147.5,16.78a16.619,16.619,0,0,1-6.893,13.493V28.7A15.371,15.371,0,1,0,120.042,5.873c-.3.292-.585.607-.855.922a15.315,15.315,0,0,0-.146,19.79c.27.326.551.641.855.945a13.559,13.559,0,0,0,1.012.945v1.619a17.531,17.531,0,0,1-1.878-1.642c-.292-.3-.585-.607-.855-.933a16.608,16.608,0,0,1,.157-21.656c.281-.315.562-.618.866-.911A16.619,16.619,0,0,1,147.5,16.78Z" transform="translate(81.908 264.489)" fill="#607953"/>
    <path id="Path_35258" data-name="Path 35258" d="M70.56,0V1.259H82.929a16.619,16.619,0,0,0-3.609,28.684V28.335A15.359,15.359,0,0,1,89.1,1.259h9.681V0Z" transform="translate(76.474 264.47)" fill="#886aad"/>
  </g>
</svg>
