<svg xmlns="http://www.w3.org/2000/svg" width="137.466" height="15.28" viewBox="0 0 137.466 15.28">
  <g id="Group_11560" data-name="Group 11560" transform="translate(7570 -1091.05)">
    <path id="Path_35250" data-name="Path 35250" d="M6.429,51.21V63.218a1.029,1.029,0,0,1-.315.759,1.074,1.074,0,0,1-1.53,0,1.028,1.028,0,0,1-.315-.759V51.21H1.081a1.029,1.029,0,0,1-.759-.315,1.074,1.074,0,0,1,0-1.53,1.029,1.029,0,0,1,.759-.315h8.44a1.035,1.035,0,0,1,.765.315,1.074,1.074,0,0,1,0,1.53,1.035,1.035,0,0,1-.765.315Z" transform="translate(-7570.002 1042)" fill="#fff"/>
    <path id="Path_35251" data-name="Path 35251" d="M40.028,58.7a3,3,0,0,0-1.286-.264,3.148,3.148,0,1,0,2.218,5.374h0a1.022,1.022,0,0,1,.752-.309,1.041,1.041,0,0,1,.765.315,1.009,1.009,0,0,1,.328.739,1.029,1.029,0,0,1-.315.759h0a5.3,5.3,0,1,1-3.728-9.051A5.065,5.065,0,0,1,42.49,57.8h0a1.061,1.061,0,0,1,0,1.5l-3.034,3.008a1.048,1.048,0,0,1-.759.309,1.086,1.086,0,0,1-.778-1.845Z" transform="translate(-7581.952 1039.425)" fill="#fff"/>
    <path id="Path_35252" data-name="Path 35252" d="M77.1,58.707a3,3,0,0,0-1.286-.264,3.143,3.143,0,1,0,0,6.287,3.015,3.015,0,0,0,2.218-.913h0a1.022,1.022,0,0,1,.752-.309,1.041,1.041,0,0,1,.765.315,1.009,1.009,0,0,1,.315.759,1.028,1.028,0,0,1-.315.759h0a5.3,5.3,0,1,1-3.728-9.051,5.065,5.065,0,0,1,3.728,1.543h0a1.061,1.061,0,0,1,0,1.5l-3.028,3.008a1.061,1.061,0,0,1-.765.309,1.08,1.08,0,0,1-.778-.309,1.125,1.125,0,0,1,0-1.536Z" transform="translate(-7595.188 1039.414)" fill="#fff"/>
    <path id="Path_35253" data-name="Path 35253" d="M118.43,66.877a1.048,1.048,0,0,1-.765-.321,1.228,1.228,0,0,1-.315-.906V61.554a.97.97,0,0,1,0-.193,2.976,2.976,0,0,0-.913-2.006,3.053,3.053,0,0,0-2.231-.919h-.039a3.053,3.053,0,0,0-2.231.919,2.976,2.976,0,0,0-.913,2.006v4.288a1.228,1.228,0,0,1-.321.906,1.022,1.022,0,0,1-.759.321,1.048,1.048,0,0,1-.765-.321,1.286,1.286,0,0,1-.321-.932V61.528a5.143,5.143,0,0,1,1.549-3.69,5.47,5.47,0,0,1,3.683-1.568h.167a5.47,5.47,0,0,1,3.69,1.568,7.159,7.159,0,0,1,.476.54,7.164,7.164,0,0,1,.476-.54,5.457,5.457,0,0,1,3.683-1.568h.167a5.445,5.445,0,0,1,3.677,1.568,5.091,5.091,0,0,1,1.549,3.69v4.095a1.286,1.286,0,0,1-.315.932,1.074,1.074,0,0,1-1.53,0,1.228,1.228,0,0,1-.315-.906V61.361a2.944,2.944,0,0,0-.913-2.006,3.041,3.041,0,0,0-2.224-.919h-.045a3.047,3.047,0,0,0-2.224.919,2.976,2.976,0,0,0-.913,2.006q0,.1,0,.193v4.095a1.228,1.228,0,0,1-.321.906,1.035,1.035,0,0,1-.759.321Z" transform="translate(-7608.883 1039.421)" fill="#fff"/>
    <path id="Path_35254" data-name="Path 35254" d="M168.791,58.725a3.15,3.15,0,1,0,.932,5.143h0a1.086,1.086,0,0,1,1.838.765,1.035,1.035,0,0,1-.321.759h0a5.3,5.3,0,1,1,0-7.508h0a1.061,1.061,0,0,1,0,1.5l-3.034,3.008a1.086,1.086,0,1,1-1.536-1.536Z" transform="translate(-7627.938 1039.396)" fill="#fff"/>
    <path id="Path_35255" data-name="Path 35255" d="M205.875,58.707a3.009,3.009,0,0,0-1.286-.264,3.143,3.143,0,1,0,2.231,5.374h0a1,1,0,0,1,.752-.309,1.028,1.028,0,0,1,.759.315,1.016,1.016,0,0,1,.321.759,1.035,1.035,0,0,1-.321.759h0A5.3,5.3,0,1,1,204.6,56.29a5.072,5.072,0,0,1,3.735,1.543h0a1.061,1.061,0,0,1,0,1.5L205.3,62.338a1.048,1.048,0,0,1-.759.309,1.086,1.086,0,0,1-.778-1.845Z" transform="translate(-7641.186 1039.414)" fill="#fff"/>
  </g>
</svg>
