<svg xmlns="http://www.w3.org/2000/svg" width="33.859" height="13.057" viewBox="0 0 33.859 13.057">
  <g id="Group_11909" data-name="Group 11909" transform="translate(-170.888 -37.37)">
    <g id="Group_11562" data-name="Group 11562" transform="translate(24.104 -226.8)">
      <path id="Path_35256" data-name="Path 35256" d="M104.838,2.021c-.123.118-.237.241-.351.369A6.225,6.225,0,1,0,96,11.5v.656a6.735,6.735,0,1,1,8.834-10.113Z" transform="translate(64.094 264.462)" fill="#fff" stroke="#fff" stroke-width="0.5"/>
      <path id="Path_35257" data-name="Path 35257" d="M127.708,6.885a6.73,6.73,0,0,1-2.791,5.464v-.637a6.225,6.225,0,1,0-8.328-9.244c-.123.118-.237.246-.346.373a6.2,6.2,0,0,0-.059,8.014c.109.132.223.26.346.382a5.491,5.491,0,0,0,.41.382v.656a7.1,7.1,0,0,1-.76-.665c-.118-.123-.237-.246-.346-.378a6.725,6.725,0,0,1,.064-8.77c.114-.127.228-.25.351-.369a6.73,6.73,0,0,1,11.461,4.79Z" transform="translate(52.684 264.388)" fill="#fff" stroke="#fff" stroke-width="0.5"/>
      <path id="Path_35258" data-name="Path 35258" d="M70.56,0V.51h5.009a6.73,6.73,0,0,0-1.462,11.616v-.651A6.22,6.22,0,0,1,78.069.51h3.921V0Z" transform="translate(76.474 264.47)" fill="#fff" stroke="#fff" stroke-width="0.5"/>
    </g>
    <path id="iconfinder_-_Star-Favorite-Featured-Famous-Super_3844428" d="M9.539,4.843a.525.525,0,0,0-.419-.356l-1.975-.3L6.255,2.3a.519.519,0,0,0-.944,0L4.435,4.184l-1.988.3a.526.526,0,0,0-.419.356.542.542,0,0,0,.126.553L3.592,6.868l-.34,2.075a.536.536,0,0,0,.219.529.511.511,0,0,0,.546.031l1.754-.979L7.55,9.5A.512.512,0,0,0,8.1,9.472a.536.536,0,0,0,.219-.529l-.34-2.077L9.413,5.4A.542.542,0,0,0,9.539,4.843Z" transform="translate(191.945 38.225)" fill="#fff"/>
  </g>
</svg>
