<svg xmlns="http://www.w3.org/2000/svg" width="240.454" height="26.728" viewBox="0 0 240.454 26.728">
  <g id="Group_11563" data-name="Group 11563" transform="translate(-67.697 -319.622)">
    <path id="Path_35250" data-name="Path 35250" d="M11.244,52.828v21a1.8,1.8,0,0,1-.551,1.327,1.878,1.878,0,0,1-2.676,0,1.8,1.8,0,0,1-.551-1.327v-21H1.889a1.8,1.8,0,0,1-1.327-.551,1.878,1.878,0,0,1,0-2.676,1.8,1.8,0,0,1,1.327-.551H16.652a1.81,1.81,0,0,1,1.338.551,1.878,1.878,0,0,1,0,2.676,1.81,1.81,0,0,1-1.338.551Z" transform="translate(67.696 270.573)" fill="#886aad"/>
    <path id="Path_35251" data-name="Path 35251" d="M44.952,60.522a5.24,5.24,0,0,0-2.249-.461,5.506,5.506,0,1,0,3.879,9.4h0a1.788,1.788,0,0,1,1.316-.54,1.822,1.822,0,0,1,1.338.551,1.765,1.765,0,0,1,.573,1.293,1.8,1.8,0,0,1-.551,1.327h0A9.265,9.265,0,1,1,42.737,56.26a8.86,8.86,0,0,1,6.522,2.7h0a1.855,1.855,0,0,1,0,2.62l-5.307,5.262a1.833,1.833,0,0,1-1.327.54,1.9,1.9,0,0,1-1.361-3.227Z" transform="translate(71.858 271.469)" fill="#886aad"/>
    <path id="Path_35252" data-name="Path 35252" d="M82.034,60.518a5.24,5.24,0,0,0-2.249-.461,5.5,5.5,0,1,0,0,11,5.273,5.273,0,0,0,3.879-1.6h0a1.788,1.788,0,0,1,1.316-.54,1.822,1.822,0,0,1,1.338.551,1.765,1.765,0,0,1,.551,1.327,1.8,1.8,0,0,1-.551,1.327h0A9.265,9.265,0,1,1,79.8,56.29a8.86,8.86,0,0,1,6.522,2.7h0a1.855,1.855,0,0,1,0,2.62l-5.3,5.262a1.855,1.855,0,0,1-1.338.54,1.889,1.889,0,0,1-1.361-.54,1.968,1.968,0,0,1,0-2.687Z" transform="translate(76.468 271.473)" fill="#886aad"/>
    <path id="Path_35253" data-name="Path 35253" d="M125.6,74.823a1.833,1.833,0,0,1-1.338-.562,2.148,2.148,0,0,1-.551-1.585V65.513a1.7,1.7,0,0,1,0-.337,5.206,5.206,0,0,0-1.6-3.508,5.341,5.341,0,0,0-3.9-1.608h-.067a5.341,5.341,0,0,0-3.9,1.608,5.206,5.206,0,0,0-1.6,3.508v7.5a2.148,2.148,0,0,1-.562,1.585,1.788,1.788,0,0,1-1.327.562,1.833,1.833,0,0,1-1.338-.562,2.249,2.249,0,0,1-.562-1.63V65.468a9,9,0,0,1,2.71-6.454,9.569,9.569,0,0,1,6.443-2.744h.292a9.569,9.569,0,0,1,6.454,2.744,12.524,12.524,0,0,1,.832.945,12.526,12.526,0,0,1,.832-.945,9.546,9.546,0,0,1,6.443-2.744h.292a9.524,9.524,0,0,1,6.432,2.744,8.9,8.9,0,0,1,2.71,6.454V72.63a2.249,2.249,0,0,1-.551,1.63,1.878,1.878,0,0,1-2.676,0,2.148,2.148,0,0,1-.551-1.585v-7.5a5.15,5.15,0,0,0-1.6-3.508,5.318,5.318,0,0,0-3.89-1.608h-.079a5.33,5.33,0,0,0-3.89,1.608,5.206,5.206,0,0,0-1.6,3.508q0,.169,0,.337v7.163a2.148,2.148,0,0,1-.562,1.585,1.81,1.81,0,0,1-1.327.562Z" transform="translate(81.238 271.471)" fill="#607953"/>
    <path id="Path_35254" data-name="Path 35254" d="M173.724,60.512a5.51,5.51,0,1,0,1.63,9h0a1.9,1.9,0,0,1,3.216,1.338,1.81,1.81,0,0,1-.562,1.327h0a9.265,9.265,0,1,1,0-13.133h0a1.855,1.855,0,0,1,0,2.62L172.7,66.921a1.9,1.9,0,1,1-2.687-2.687Z" transform="translate(87.876 271.479)" fill="#607953"/>
    <path id="Path_35255" data-name="Path 35255" d="M210.8,60.518a5.262,5.262,0,0,0-2.249-.461,5.5,5.5,0,1,0,3.9,9.4h0a1.754,1.754,0,0,1,1.316-.54,1.8,1.8,0,0,1,1.327.551,1.776,1.776,0,0,1,.562,1.327,1.81,1.81,0,0,1-.562,1.327h0a9.265,9.265,0,1,1-6.533-15.832,8.872,8.872,0,0,1,6.533,2.7h0a1.855,1.855,0,0,1,0,2.62l-5.307,5.262a1.833,1.833,0,0,1-1.327.54,1.9,1.9,0,0,1-1.361-3.227Z" transform="translate(92.49 271.473)" fill="#607953"/>
  </g>
</svg>
